<?xml version="1.0" encoding="utf-8"?>
<!-- Generator: Adobe Illustrator 15.1.0, SVG Export Plug-In . SVG Version: 6.00 Build 0)  -->
<!DOCTYPE svg PUBLIC "-//W3C//DTD SVG 1.1//EN" "http://www.w3.org/Graphics/SVG/1.1/DTD/svg11.dtd">
<svg version="1.1" id="Layer_1" xmlns="http://www.w3.org/2000/svg" xmlns:xlink="http://www.w3.org/1999/xlink" x="0px" y="0px"
	 width="72.254px" height="104px" viewBox="0 0 72.254 104" enable-background="new 0 0 72.254 104" xml:space="preserve">
<g>
	<g>
		<defs>
			<rect id="SVGID_1_" y="1" width="72.254" height="103"/>
		</defs>
		<clipPath id="SVGID_2_">
			<use xlink:href="#SVGID_1_"  overflow="visible"/>
		</clipPath>
		<g clip-path="url(#SVGID_2_)">
			<g>
				<defs>
					<rect id="SVGID_3_" y="1" width="72.254" height="103"/>
				</defs>
				<clipPath id="SVGID_4_">
					<use xlink:href="#SVGID_3_"  overflow="visible"/>
				</clipPath>
				<g clip-path="url(#SVGID_4_)">
					<g opacity="0.97">
						<g>
							<defs>
								<rect id="SVGID_5_" x="-9" width="90.254" height="99.938"/>
							</defs>
							<clipPath id="SVGID_6_">
								<use xlink:href="#SVGID_5_"  overflow="visible"/>
							</clipPath>
							<path clip-path="url(#SVGID_6_)" fill="#F7F5E9" d="M43.911,49.664c-0.338,0.704-0.752,1.331-1.104,2.021h0.43
								c0.383-0.67,0.762-1.343,1.135-2.021H43.911z M42.961,49.664c-0.348,0.696-0.766,1.318-1.104,2.021h0.429
								c0.371-0.681,0.752-1.354,1.135-2.021H42.961z M42.012,49.664c-0.377,0.675-0.758,1.349-1.135,2.021h0.459
								c0.344-0.697,0.76-1.324,1.104-2.021H42.012z M41.03,49.664c-0.337,0.704-0.752,1.331-1.104,2.021h0.429
								c0.383-0.67,0.763-1.343,1.136-2.021H41.03z M40.081,49.664c-0.347,0.696-0.767,1.318-1.104,2.021h0.43
								c0.369-0.681,0.75-1.354,1.134-2.021H40.081z M39.129,49.664c-0.375,0.675-0.754,1.349-1.133,2.021h0.459
								c0.344-0.697,0.758-1.325,1.104-2.021H39.129z M38.15,49.664c-0.338,0.704-0.754,1.331-1.104,2.021h0.429
								c0.383-0.67,0.763-1.343,1.135-2.021H38.15z M37.2,49.664c-0.349,0.693-0.764,1.32-1.103,2.021h0.429
								c0.37-0.681,0.75-1.354,1.133-2.021H37.2z M36.25,49.664c-0.376,0.676-0.755,1.349-1.134,2.021h0.46
								c0.343-0.697,0.757-1.325,1.103-2.021H36.25z M35.269,49.664c-0.336,0.706-0.754,1.329-1.103,2.021h0.429
								c0.382-0.67,0.761-1.343,1.134-2.021H35.269z M34.319,49.664c-0.348,0.693-0.763,1.32-1.103,2.021h0.429
								c0.371-0.681,0.749-1.355,1.134-2.021H34.319z M33.369,49.664c-0.377,0.675-0.755,1.349-1.133,2.021h0.459
								c0.344-0.697,0.757-1.325,1.103-2.021H33.369z M32.389,49.664c-0.336,0.706-0.755,1.329-1.103,2.021h0.429
								c0.382-0.67,0.761-1.343,1.134-2.021H32.389z M31.439,49.664c-0.348,0.693-0.764,1.32-1.103,2.021h0.429
								c0.371-0.681,0.748-1.355,1.134-2.021H31.439z M30.489,49.664c-0.377,0.675-0.755,1.349-1.134,2.021h0.46
								c0.343-0.697,0.757-1.325,1.103-2.021H30.489z M29.509,49.664c-0.336,0.706-0.755,1.329-1.104,2.021h0.429
								c0.382-0.671,0.761-1.343,1.134-2.021H29.509z M53.135,50.89c1.979-0.682,3.389-2.058,4.074-4.015
								c0.834-2.38,0.137-4.841-1.012-6.281c-1.158-1.456-2.964-2.682-5.607-2.513c-1.896,0.121-3.479,1.034-4.473,2.175
								c-1.052,1.205-1.687,2.635-1.687,4.873c0,12.973,0,26.438,0,39.283c0.256,0.07,0.644,0.011,0.948,0.031
								c0.021-11.053-0.039-22.188,0.031-33.188C48.266,51.117,51.1,51.59,53.135,50.89 M28.314,57.784c0-4.353,0.133-9.07,0-13.329
								c-0.064-2.01-0.956-3.559-2.084-4.597c-1.147-1.055-2.715-1.917-4.903-1.777c-2.37,0.151-4.012,1.382-5.056,2.942
								c-1.09,1.627-1.525,4.046-0.613,6.22c0.751,1.792,2.159,3.085,4.168,3.708c2.004,0.622,4.745,0.137,7.538,0.337v33.155h0.95
								V57.784z M52.766,86.312c-2.225,1.127-4.502,2.127-6.771,3.188c-6.754,3.152-13.624,6.264-20.408,9.438
								c-0.814-0.34-1.588-0.72-2.39-1.071c9.662-4.526,19.416-8.959,29.079-13.482c-0.627,0-1.303-0.001-1.99,0
								c-0.658,0-1.389-0.108-1.992,0c-0.453,0.081-1.092,0.501-1.594,0.735c-7.971,3.708-15.861,7.309-23.84,11v-2.176
								c6.877-3.193,13.785-6.357,20.653-9.561c-0.634,0-1.308-0.001-1.992,0c-0.658,0-1.377-0.1-1.99,0
								c-0.288,0.047-0.721,0.297-1.073,0.459c-5.22,2.402-10.33,4.844-15.597,7.201v-2.176c3.966-1.814,7.927-3.637,11.859-5.484
								c-0.696,0-1.34-0.001-1.992,0c-0.643,0-1.358-0.109-1.992,0c-0.293,0.051-0.65,0.309-0.98,0.459
								c-2.316,1.066-4.62,2.137-6.895,3.126v-2.145c1.026-0.486,2.077-0.947,3.095-1.44h-3.095v-6.589
								c-3.52,1.365-8.689,1.595-13.636,1.44c0.047-7.439,0.093-14.883,0.154-22.309c-2.395-0.003-8.046-0.003-9.377,0
								c0.766-7.091,1.366-14.16,2.482-20.806c1.119-6.664,2.44-12.986,5.301-17.957c1.448-2.514,3.047-4.802,4.842-6.802
								c1.824-2.033,4.064-3.713,6.465-5.18c4.203-2.564,9.099-4.518,15.321-5.055c6.667-0.577,12.647,0.891,17.283,2.972
								c6.024,2.705,10.764,6.76,14.309,11.89c3.486,5.042,6.252,11.527,6.252,19.947c0,5.735-1.256,10.345-3.094,14.371
								c-1.816,3.976-4.273,7.459-7.142,10.327c-0.744,0.743-1.519,1.436-2.267,2.114C54.396,67.613,52.508,75.639,52.766,86.312"/>
						</g>
					</g>
					<g>
						<defs>
							<rect id="SVGID_7_" y="1" width="72.254" height="103"/>
						</defs>
						<clipPath id="SVGID_8_">
							<use xlink:href="#SVGID_7_"  overflow="visible"/>
						</clipPath>
						<g clip-path="url(#SVGID_8_)">
							<g opacity="0.97">
								<g>
									<defs>
										<rect id="SVGID_9_" x="7.138" y="38.029" width="29.252" height="13.298"/>
									</defs>
									<clipPath id="SVGID_10_">
										<use xlink:href="#SVGID_9_"  overflow="visible"/>
									</clipPath>
									<path clip-path="url(#SVGID_10_)" fill="#F7F5E9" d="M27.364,50.276c-2.515-0.166-4.947,0.278-6.833-0.122
										c-1.845-0.392-3.192-1.598-3.892-3.065c-0.87-1.822-0.522-4.124,0.399-5.515c0.927-1.4,2.497-2.496,4.535-2.543
										c2.597-0.062,4.461,1.453,5.27,3.248C27.745,44.279,27.226,47.393,27.364,50.276"/>
								</g>
							</g>
							<g>
								<defs>
									<rect id="SVGID_11_" y="1" width="72.254" height="103"/>
								</defs>
								<clipPath id="SVGID_12_">
									<use xlink:href="#SVGID_11_"  overflow="visible"/>
								</clipPath>
								<g clip-path="url(#SVGID_12_)">
									<g opacity="0.97">
										<g>
											<defs>
												<rect id="SVGID_13_" x="36.334" y="38.029" width="29.271" height="13.297"/>
											</defs>
											<clipPath id="SVGID_14_">
												<use xlink:href="#SVGID_13_"  overflow="visible"/>
											</clipPath>
											<path clip-path="url(#SVGID_14_)" fill="#F7F5E9" d="M45.381,50.276c0.14-2.315-0.213-4.535,0.062-6.436
												c0.198-1.364,0.909-2.517,1.747-3.309c0.844-0.798,2.141-1.466,3.678-1.501c2.161-0.051,3.723,0.974,4.719,2.359
												c0.963,1.342,1.418,3.57,0.582,5.546c-0.676,1.596-2.043,2.752-3.892,3.187C50.35,50.576,47.856,50.104,45.381,50.276"/>
										</g>
									</g>
									<g>
										<defs>
											<rect id="SVGID_15_" y="1" width="72.254" height="103"/>
										</defs>
										<defs>
											<rect id="SVGID_16_" y="1" width="72.254" height="103"/>
										</defs>
										<defs>
											<rect id="SVGID_17_" y="1" width="72.254" height="103"/>
										</defs>
										<clipPath id="SVGID_18_">
											<use xlink:href="#SVGID_15_"  overflow="visible"/>
										</clipPath>
										<clipPath id="SVGID_19_" clip-path="url(#SVGID_18_)">
											<use xlink:href="#SVGID_16_"  overflow="visible"/>
										</clipPath>
										<clipPath id="SVGID_20_" clip-path="url(#SVGID_19_)">
											<use xlink:href="#SVGID_17_"  overflow="visible"/>
										</clipPath>
										<path clip-path="url(#SVGID_20_)" fill="#F7F5E9" d="M52.736,88.242c0.062,0.654-0.039,1.413,0,2.146
											c-7.411,3.557-15.008,6.932-22.461,10.448h1.992c0.658,0,1.384,0.104,1.992,0c0.323-0.058,0.809-0.345,1.194-0.521
											c5.756-2.648,11.521-5.396,17.252-7.969v2.116c-4.472,2.197-9.131,4.208-13.638,6.373h1.992c0.637,0,1.344,0.115,1.991,0
											c0.349-0.063,0.836-0.37,1.228-0.553c2.802-1.306,5.616-2.63,8.396-3.86c0.016,0.444-0.016,0.842-0.03,1.258
											c-3.474,1.696-7.312,3.367-10.909,5.146c-1.152,0.571-2.555,1.255-4.166,1.164c-2.06-0.112-3.573-1.157-5.148-1.898
											c-1.631-0.768-3.175-1.498-4.811-2.206C35.954,95.975,44.372,92.135,52.736,88.242"/>
										<path clip-path="url(#SVGID_20_)" fill="#F7F5E9" d="M53.042,8.021C68.568,15.45,73.738,36.125,66.34,50.338
											c-0.016,0.047-0.031,0.002-0.029-0.031c0.025,0.006,0.027-0.011,0.029-0.031c4.719-16.896-2.877-35.466-13.176-42.07
											C53.129,8.173,52.984,8.109,53.042,8.021"/>
										<path clip-path="url(#SVGID_20_)" fill="#EEC231" d="M36.648,25.149c2.868-0.432,5.715-0.883,8.581-1.316
											c-3.926,7.747-7.934,15.418-11.859,23.165c1.526-5.88,3.256-11.82,4.841-17.742c-2.932,0.378-6.028,0.854-9.008,1.287
											c4.105-7.447,8.233-14.871,12.348-22.309C40.018,13.718,38.264,19.545,36.648,25.149"/>
									</g>
								</g>
							</g>
						</g>
					</g>
				</g>
			</g>
		</g>
	</g>
</g>
</svg>
